HIERARCHY
ROOT joint_Root
{
  OFFSET 0 0 0
  CHANNELS 6 Xposition Yposition Zposition Zrotation Xrotation Yrotation
  JOINT Hips
  {
    OFFSET 0.847027 93.984 -452.225
    CHANNELS 6 Xposition Yposition Zposition Zrotation Xrotation Yrotation
    JOINT Spine
    {
      OFFSET 15.7357 0 0
      CHANNELS 6 Xposition Yposition Zposition Zrotation Xrotation Yrotation
      JOINT Chest
      {
        OFFSET 8.98455 -0.406207 0
        CHANNELS 6 Xposition Yposition Zposition Zrotation Xrotation Yrotation
        JOINT Neck
        {
          OFFSET 16.3773 0 0
          CHANNELS 6 Xposition Yposition Zposition Zrotation Xrotation Yrotation
          JOINT Head
          {
            OFFSET 6.45672 0 0
            CHANNELS 6 Xposition Yposition Zposition Zrotation Xrotation Yrotation
            End Site
            {
              OFFSET 0 0 0
            }
          }
        }
        JOINT Shoulder_L
        {
          OFFSET 12.9942 -0.242716 4.98039
          CHANNELS 6 Xposition Yposition Zposition Zrotation Xrotation Yrotation
          JOINT UpperArm_L
          {
            OFFSET 5.34809 0 0
            CHANNELS 6 Xposition Yposition Zposition Zrotation Xrotation Yrotation
            JOINT LowerArm_L
            {
              OFFSET 24.3286 1.87007e-05 0
              CHANNELS 6 Xposition Yposition Zposition Zrotation Xrotation Yrotation
              JOINT Hand_L
              {
                OFFSET 22.2916 0 0
                CHANNELS 6 Xposition Yposition Zposition Zrotation Xrotation Yrotation
                End Site
                {
                  OFFSET 0 0 0
                }
              }
            }
          }
        }
        JOINT Shoulder_R
        {
          OFFSET 12.9945 -0.242716 -4.98039
          CHANNELS 6 Xposition Yposition Zposition Zrotation Xrotation Yrotation
          JOINT UpperArm_R
          {
            OFFSET -5.34813 0 0
            CHANNELS 6 Xposition Yposition Zposition Zrotation Xrotation Yrotation
            JOINT LowerArm_R
            {
              OFFSET -24.3289 0.000322201 0
              CHANNELS 6 Xposition Yposition Zposition Zrotation Xrotation Yrotation
              JOINT Hand_R
              {
                OFFSET -22.2915 -0.000108084 0
                CHANNELS 6 Xposition Yposition Zposition Zrotation Xrotation Yrotation
                End Site
                {
                  OFFSET 0 0 0
                }
              }
            }
          }
        }
      }
    }
    JOINT UpperLeg_L
    {
      OFFSET -2.19248 -6.46944 0
      CHANNELS 6 Xposition Yposition Zposition Zrotation Xrotation Yrotation
      JOINT LowerLeg_L
      {
        OFFSET 39.0811 0 -1.23785e-05
        CHANNELS 6 Xposition Yposition Zposition Zrotation Xrotation Yrotation
        JOINT Foot_L
        {
          OFFSET 40.9854 0 -1.26872e-05
          CHANNELS 6 Xposition Yposition Zposition Zrotation Xrotation Yrotation
          JOINT Toes_L
          {
            OFFSET 11.7543 0 0
            CHANNELS 6 Xposition Yposition Zposition Zrotation Xrotation Yrotation
            End Site
            {
              OFFSET 0 0 0
            }
          }
        }
      }
    }
    JOINT UpperLeg_R
    {
      OFFSET -2.19251 6.46944 0
      CHANNELS 6 Xposition Yposition Zposition Zrotation Xrotation Yrotation
      JOINT LowerLeg_R
      {
        OFFSET -39.0811 -0.00228153 -0.0401928
        CHANNELS 6 Xposition Yposition Zposition Zrotation Xrotation Yrotation
        JOINT Foot_R
        {
          OFFSET -40.9854 0 0
          CHANNELS 6 Xposition Yposition Zposition Zrotation Xrotation Yrotation
          JOINT Toes_R
          {
            OFFSET -11.7543 0 0
            CHANNELS 6 Xposition Yposition Zposition Zrotation Xrotation Yrotation
            End Site
            {
              OFFSET 0 0 0
            }
          }
        }
      }
    }
  }
}
MOTION
Frames:	5
Frame Time:	0.0333333
0 0 0 0 0 -0 2.25925 92.3601 -9.45358 89.9158 -2.02853 -2.24475 15.7357 5.1072e-06 -5.51765e-07 79.6713 83.5407 -81.0186 8.98455 -0.406207 -4.3199e-07 4.92108 -2.27826 -2.59384 16.3773 -1.3905e-06 -6.99897e-07 -3.84368 -3.97676 2.69318 6.45672 -1.25837e-06 -1.02172e-07 -9.58408 -2.2116 1.9475 12.9942 -0.242716 4.98039 -90.596 2.42193 -91.1704 5.34809 -7.22636e-06 -6.2814e-07 -71.5071 48.9705 -2.18052 24.3286 1.87007e-05 4.90208e-06 -11.4319 -3.42304 -73.5498 22.2916 -9.88446e-07 4.63217e-06 11.51 5.5001 -6.53607 12.9945 -0.242716 -4.98039 88.4453 9.2782 -95.4442 -5.34813 -1.25947e-06 -3.79883e-06 -73.076 40.7978 9.54413 -24.3289 0.000322201 -8.65921e-06 2.71837 0.395139 -81.7441 -22.2915 -0.000108084 -4.47941e-06 -11.0621 5.39326 -2.71968 -2.19248 -6.46944 -1.22534e-07 -178.02 -4.89889 -15.6396 39.0811 -6.73843e-06 -1.23785e-05 0.0190243 -0.0277631 22.557 40.9854 -6.48686e-06 -1.26872e-05 -1.34163 -0.442072 -59.3832 11.7543 -2.30145e-07 3.05095e-06 0.00886917 -0.0137291 -16.823 -2.19251 6.46944 -1.45247e-06 173.506 8.91959 166.607 -39.0811 -0.00228153 -0.0401928 -0.00143876 0.0375372 17.4676 -40.9854 7.72618e-06 5.99936e-06 -5.98848 0.566624 -55.6611 -11.7543 -5.6619e-06 -5.58687e-06 0.128721 -0.146768 -18.0095 
0 0 0 0 0 -0 2.19193 92.3205 -9.51852 89.867 -1.82485 -2.12883 15.7357 5.1072e-06 -5.51765e-07 80.1333 83.4438 -81.4564 8.98455 -0.406207 -4.3199e-07 5.1313 -2.21177 -2.5443 16.3773 -1.3905e-06 -6.99897e-07 -3.67205 -3.96006 2.54543 6.45672 -1.25837e-06 -1.02172e-07 -9.50628 -2.27441 1.91196 12.9942 -0.242716 4.98039 -90.6 2.43792 -91.169 5.34809 -7.22636e-06 -6.2814e-07 -71.1458 49.3208 -2.49033 24.3286 1.87007e-05 4.90208e-06 -11.5756 -3.41094 -73.8027 22.2916 -9.88446e-07 4.63217e-06 11.1982 5.48832 -6.0704 12.9945 -0.242716 -4.98039 88.4417 9.3496 -95.4936 -5.34813 -1.25947e-06 -3.79883e-06 -73.084 40.6456 9.53641 -24.3289 0.000322201 -8.65921e-06 2.56348 0.373411 -81.7268 -22.2915 -0.000108084 -4.47941e-06 -11.3706 5.39653 -2.82437 -2.19248 -6.46944 -1.22534e-07 -177.915 -4.8582 -15.7376 39.0811 -6.73843e-06 -1.23785e-05 0.0188789 -0.0267273 22.8489 40.9854 -6.48686e-06 -1.26872e-05 -1.36367 -0.292314 -59.4589 11.7543 -2.30145e-07 3.05095e-06 0.0107847 -0.0166954 -16.8761 -2.19251 6.46944 -1.45247e-06 173.597 9.09419 166.522 -39.0811 -0.00228153 -0.0401928 0.00017569 0.0331237 17.8657 -40.9854 7.72618e-06 5.99936e-06 -5.93376 0.556403 -55.842 -11.7543 -5.6619e-06 -5.58687e-06 0.129501 -0.147671 -18.0183 
0 0 0 0 0 -0 2.06281 92.2833 -9.57622 89.8837 -1.65163 -2.07279 15.7357 5.1072e-06 -5.51765e-07 80.7792 83.3755 -82.0847 8.98455 -0.406207 -4.3199e-07 5.29202 -2.09018 -2.51172 16.3773 -1.3905e-06 -6.99897e-07 -3.52448 -3.92967 2.3957 6.45672 -1.25837e-06 -1.02172e-07 -9.45454 -2.37078 2.02181 12.9942 -0.242716 4.98039 -90.5969 2.41356 -91.1038 5.34809 -7.22636e-06 -6.2814e-07 -70.8238 49.437 -2.80282 24.3286 1.87007e-05 4.90208e-06 -11.3102 -3.30284 -73.9304 22.2916 -9.88446e-07 4.63217e-06 11.1394 5.48616 -5.98627 12.9945 -0.242716 -4.98039 88.4461 9.37545 -95.5456 -5.34813 -1.25947e-06 -3.79883e-06 -73.0408 40.5868 9.55334 -24.3289 0.000322201 -8.65921e-06 2.46117 0.355891 -81.7863 -22.2915 -0.000108084 -4.47941e-06 -11.3376 5.39954 -2.92178 -2.19248 -6.46944 -1.22534e-07 -177.837 -4.75545 -15.8454 39.0811 -6.73843e-06 -1.23785e-05 0.019075 -0.0267036 23.0496 40.9854 -6.48686e-06 -1.26872e-05 -1.43807 -0.205765 -59.4934 11.7543 -2.30145e-07 3.05095e-06 0.00946534 -0.0146557 -16.8396 -2.19251 6.46944 -1.45247e-06 173.664 9.24265 166.322 -39.0811 -0.00228153 -0.0401928 0.00202379 0.0288621 18.3438 -40.9854 7.72618e-06 5.99936e-06 -5.85046 0.51434 -56.059 -11.7543 -5.6619e-06 -5.58687e-06 0.128459 -0.146449 -18.0065 
0 0 0 0 0 -0 1.86841 92.2533 -9.60508 89.9106 -1.4808 -1.93275 15.7357 5.1072e-06 -5.51765e-07 81.4618 83.2652 -82.733 8.98455 -0.406207 -4.3199e-07 5.53628 -1.97041 -2.44445 16.3773 -1.3905e-06 -6.99897e-07 -3.46755 -3.90016 2.30214 6.45672 -1.25837e-06 -1.02172e-07 -9.4304 -2.42409 2.11591 12.9942 -0.242716 4.98039 -90.6073 2.43915 -91.0142 5.34809 -7.22636e-06 -6.2814e-07 -70.5299 49.4758 -3.02519 24.3286 1.87007e-05 4.90208e-06 -11.1876 -3.2134 -74.1763 22.2916 -9.88446e-07 4.63217e-06 10.9589 5.48143 -5.80181 12.9945 -0.242716 -4.98039 88.4492 9.38768 -95.5759 -5.34813 -1.25947e-06 -3.79883e-06 -72.9081 40.7285 9.482 -24.3289 0.000322201 -8.65921e-06 2.04067 0.290222 -81.921 -22.2915 -0.000108084 -4.47941e-06 -11.3279 5.40381 -3.06147 -2.19248 -6.46944 -1.22534e-07 -177.699 -4.48952 -15.8044 39.0811 -6.73843e-06 -1.23785e-05 0.0180303 -0.0244371 23.1712 40.9854 -6.48686e-06 -1.26872e-05 -1.59205 -0.252792 -59.5132 11.7543 -2.30145e-07 3.05095e-06 0.00964974 -0.0149394 -16.8447 -2.19251 6.46944 -1.45247e-06 173.748 9.30084 166.22 -39.0811 -0.00228153 -0.0401928 0.00466319 0.0218838 18.8439 -40.9854 7.72618e-06 5.99936e-06 -5.72895 0.432288 -56.3277 -11.7543 -5.6619e-06 -5.58687e-06 0.12797 -0.145878 -18.001 
0 0 0 0 0 -0 1.60919 92.2432 -9.64532 89.9577 -1.30684 -1.8142 15.7357 5.1072e-06 -5.51765e-07 81.9077 83.1559 -83.1421 8.98455 -0.406207 -4.3199e-07 5.76902 -1.90054 -2.37032 16.3773 -1.3905e-06 -6.99897e-07 -3.41357 -3.87085 2.27876 6.45672 -1.25837e-06 -1.02172e-07 -9.47099 -2.4253 2.20985 12.9942 -0.242716 4.98039 -90.6281 2.5148 -90.9732 5.34809 -7.22636e-06 -6.2814e-07 -70.4269 49.3974 -2.903 24.3286 1.87007e-05 4.90208e-06 -11.1614 -3.10188 -74.6638 22.2916 -9.88446e-07 4.63217e-06 10.6089 5.4735 -5.50125 12.9945 -0.242716 -4.98039 88.4586 9.37994 -95.6245 -5.34813 -1.25947e-06 -3.79883e-06 -72.8042 40.9439 9.42224 -24.3289 0.000322201 -8.65921e-06 2.06307 0.286092 -82.1189 -22.2915 -0.000108084 -4.47941e-06 -11.2363 5.41213 -3.33584 -2.19248 -6.46944 -1.22534e-07 -177.539 -4.14767 -15.6951 39.0811 -6.73843e-06 -1.23785e-05 0.0168795 -0.022534 23.1119 40.9854 -6.48686e-06 -1.26872e-05 -1.80285 -0.391957 -59.4424 11.7543 -2.30145e-07 3.05095e-06 0.0109213 -0.0169168 -16.8801 -2.19251 6.46944 -1.45247e-06 173.859 9.26699 166.144 -39.0811 -0.00228153 -0.0401928 0.00710762 0.0159166 19.2442 -40.9854 7.72618e-06 5.99936e-06 -5.57636 0.23359 -56.5612 -11.7543 -5.6619e-06 -5.58687e-06 0.117964 -0.134212 -17.8879 
